<?xml version="1.0" encoding="utf-8"?>
<!-- Generator: Adobe Illustrator 17.0.0, SVG Export Plug-In . SVG Version: 6.00 Build 0)  -->
<!DOCTYPE svg PUBLIC "-//W3C//DTD SVG 1.1//EN" "http://www.w3.org/Graphics/SVG/1.1/DTD/svg11.dtd">
<svg version="1.1" id="Capa_1" xmlns="http://www.w3.org/2000/svg" xmlns:xlink="http://www.w3.org/1999/xlink" x="0px" y="0px"
	 width="50px" height="50px" viewBox="15.25 -29.75 50 50" enable-background="new 15.25 -29.75 50 50" xml:space="preserve">
<polygon points="22.127,-25.255 22.127,-25.636 22.127,-29.375 28.477,-29.375 28.477,-25.544 27.637,-26.121 22.816,-26.089 "/>
<path d="M22.075-23.51v2.493c0,0,1.347,1.601,2.021,1.601c0.673,0,2.454,0,2.454,0s1.78-0.791,2.139-2.48v-1.614l-1.168-0.492
	l-1.325-0.427l-1.601-0.065l-1.312,0.393L22.075-23.51z"/>
<path d="M22.127-17.672c0,0,1.286,4.382,2.336,5.222l0.184,0.039l-0.013-1.574l-0.203-0.676l0.243-0.545l0.249-0.17l0.197-0.551
	v-0.433l-0.985-1.312h2.454l-0.735,1.299l-0.026,0.407l0.085,0.604l0.354,0.512l-0.033,0.63l-0.275,0.354l0.013,1.417l0.485-0.394
	c0,0,1.745-2.532,1.784-4.448c0,0,0.695-0.59,1.771,0.118s2.156,0.971,2.961,3.77c0.805,2.799,1.417,4.601,1.417,4.601l0.612,0.647
	l4.566,2.379c0,0,1.084,0.927,0,2.222c-1.084,1.294-3.534-0.787-3.534-0.787L31.467-6.7l-0.734-4.324l-0.297-1.662l-0.665-0.018
	l-0.002,1.743l0.177,28.66c0,0-0.485,1.469-1.837,1.509c-1.351,0.039-2.034-1.312-2.034-1.312l0.039-18.285l-1.364-0.036
	l-0.175,18.508c0,0-0.91,1.095-1.819,1.125c-0.909,0.03-1.959-0.74-2.064-1.335L20.517-3.643l2.659,0.35c0,0,1.785,0.279,3.079,0
	c1.26-0.63,1.924-1.644,1.959-2.799c0.035-2.825-0.892-3-1.797-3.577c-0.826-0.262-5.549-0.55-5.549-0.55l-0.096-1.181l-0.018-2.886
	l-0.814-0.009l-0.367,0.446v4.889c0,0,0.031,0.197,0.835,0.407c0.805,0.21,5.418,0.643,5.418,0.643s1.142,0.354,1.011,1.552
	c-0.237,1.898-3.045,1.452-3.045,1.452L17.264-5.9c0,0-1.015-0.367-1.015-1.452s0-6.752,0-6.752s1.225-3.114,3.254-3.324
	S22.127-17.672,22.127-17.672z"/>
<path d="M37.486-8.908L35.807-9.8l-0.245-13.784c0,0,0.105-0.7,0.962-0.7h27.796V15.39c0,0-0.28,0.14-1.015,0.42
	s-13.925,4.023-13.925,4.023s-1.084-0.14-1.05-1.33c0.005-0.17,0.017-2.624,0.017-2.624H36.314l-0.464-0.896l0.026-17.436
	l1.719,1.174l-0.013,15.121l10.761,0.043l-0.029-33.302c0,0,0.63-1.037,1.627-0.984c0.997,0.052,5.808-1.749,5.808-1.749
	l-0.018-0.665l-18.158,0.07"/>
<ellipse fill="#FFFFFF" cx="51.568" cy="-0.861" rx="1.557" ry="1.504"/>
</svg>
