<?xml version="1.0" encoding="utf-8"?>
<!-- Generator: Adobe Illustrator 17.0.0, SVG Export Plug-In . SVG Version: 6.00 Build 0)  -->
<!DOCTYPE svg PUBLIC "-//W3C//DTD SVG 1.1//EN" "http://www.w3.org/Graphics/SVG/1.1/DTD/svg11.dtd">
<svg version="1.1" id="Capa_1" xmlns="http://www.w3.org/2000/svg" xmlns:xlink="http://www.w3.org/1999/xlink" x="0px" y="0px"
	 width="50px" height="50px" viewBox="50 51.5 50 50" enable-background="new 50 51.5 50 50" xml:space="preserve">
<path d="M74.457,66.067l16.997,15.197v16.133c0,0,0.216,1.512-1.296,1.729c-1.512,0.216-11.884,0-11.884,0l0.144-12.532
	l-7.562,0.144v12.484H59.044c0,0-1.44-0.528-1.44-1.753c0-1.225,0-16.133,0-16.133"/>
<path d="M74.534,63.331l20.341,18.366c0,0,0.529,0.747,1.188,0c0.678-0.767,1.938-2.689,1.938-2.689s0.591-0.493-0.2-1.277
	c-0.797-0.791-6.337-5.613-6.337-5.613V58.631c0,0-0.533-0.756-1.019-0.756s-5.618,0-5.618,0s-1.026,0-0.918,1.296
	c0.108,1.296,0.054,6.374,0.054,6.374l-7.67-7.184c0,0-2.107-1.296-4.267,0.432c-2.161,1.729-20.905,19.014-20.905,19.014
	s-0.648,0.81,0,1.729c0.648,0.918,1.729,2.215,1.729,2.215s0.918,0.486,1.404-0.108"/>
</svg>
