<?xml version="1.0" encoding="utf-8"?>
<!-- Generator: Adobe Illustrator 17.0.0, SVG Export Plug-In . SVG Version: 6.00 Build 0)  -->
<!DOCTYPE svg PUBLIC "-//W3C//DTD SVG 1.1//EN" "http://www.w3.org/Graphics/SVG/1.1/DTD/svg11.dtd">
<svg version="1.1" id="Capa_1" xmlns="http://www.w3.org/2000/svg" xmlns:xlink="http://www.w3.org/1999/xlink" x="0px" y="0px"
	 width="50px" height="50px" viewBox="35.167 18.5 50 50" enable-background="new 35.167 18.5 50 50" xml:space="preserve">
<path d="M50.527,27.387h17.615V22.35c0,0-0.096-2.506-1.59-2.627c-1.494-0.121-14.578,0-14.578,0s-1.446,1.085-1.446,2.458"/>
<path d="M43.25,67.33h9.221c0,0-0.064-1.462,1.61-1.426c1.675,0.036,1.41,1.426,1.41,1.426h8.458c0,0-0.145-1.426,1.566-1.426
	c1.711,0,1.578,1.426,1.578,1.426h8.783c0,0,0.498-6.94-7.727-11.631l-0.683-1.313l-4.494-0.578l-3.048,6.325l-3.47-6.325
	l-4.096,0.847l-0.851,1.381c0,0-6.811,3.325-8.257,10.072"/>
<ellipse fill="#FFFFFF" cx="54.005" cy="62.663" rx="1.486" ry="1.759"/>
<ellipse fill="#FFFFFF" cx="65.483" cy="62.663" rx="1.486" ry="1.759"/>
<path d="M50.142,28.519h18.988c0,0,1.108,0.771,1.735,4.337s0.578,6.12-0.964,10.361l-0.578-7.35c0,0-5.992-0.635-13.349-5.389
	c0,0-4.177,0.884-5.446,5.389c-1.269,4.506-0.819,7.912-0.819,7.912s-1.767-1.381-2.281-8.578
	C48.037,29.804,50.142,28.519,50.142,28.519z"/>
<path d="M55.941,31.7c0,0-3.663,0.064-4.755,5.59v10.024c0,0,1.639,2.634,5.687,3.887h5.088c0,0,5.144-1.255,6.783-5.333
	l-0.41-8.819c0,0-7.855-1.47-11.88-5.06L55.941,31.7z"/>
<path fill="#FFFFFF" d="M55.732,45.322c0,0,1.59,1.092,2.378,1.301h2.795c0,0,1.896-0.675,2.265-1.414c0.369-0.739,0-1.205,0-1.205
	s-0.626-0.113-0.819,0.273c-0.418,0.562-1.783,0.916-1.783,0.916l-2.49,0.016l-1.51-1.06c0,0-0.434-0.177-0.739,0.145
	C55.523,44.615,55.732,45.322,55.732,45.322z"/>
<ellipse fill="#FFFFFF" cx="55.346" cy="39.587" rx="1.59" ry="1.542"/>
<ellipse fill="#FFFFFF" cx="63.334" cy="39.587" rx="1.59" ry="1.542"/>
</svg>
